<svg width="99" height="28" viewBox="0 0 99 28" fill="none" xmlns="http://www.w3.org/2000/svg">
<path d="M0 21.0563V19.5222L2.07415 19.2816C2.33095 19.061 2.45935 18.7702 2.45935 18.4092V2.64708C2.45935 2.28611 2.33095 1.99534 2.07415 1.77475L0 1.5341V0H9.74849C12.0399 0 13.8375 0.541448 15.1413 1.62434C16.4648 2.68719 17.1265 4.14107 17.1265 5.98601C17.1265 7.87105 16.4549 9.37507 15.1116 10.4981C13.7684 11.601 11.9214 12.1525 9.57071 12.1525H6.90395V18.3792C6.90395 18.7401 7.03235 19.0309 7.28914 19.2515L9.80775 19.5222V21.0563H0ZM8.65216 10.1973C9.87689 10.1973 10.8152 9.84633 11.4671 9.14445C12.1189 8.44258 12.4449 7.44992 12.4449 6.16649C12.4449 4.8229 12.1189 3.78011 11.4671 3.03813C10.8152 2.29614 9.87689 1.92515 8.65216 1.92515H6.90395V10.1973H8.65216Z" fill="#1F2122"/>
<path d="M32.1129 17.7174L32.6167 19.0108L28.9424 21.297H27.4313L26.7201 18.9808H26.4535C25.9399 19.7829 25.2979 20.4046 24.5275 20.8457C23.7571 21.2669 22.8978 21.4774 21.9496 21.4774C20.6854 21.4774 19.6384 21.0964 18.8088 20.3344C17.9989 19.5523 17.5939 18.5496 17.5939 17.3263C17.5939 16.3237 17.8606 15.4814 18.3939 14.7996C18.947 14.0977 19.8261 13.5061 21.0311 13.0248C22.2558 12.5235 23.8954 12.0823 25.9498 11.7013V10.468C25.9695 9.40515 25.8411 8.66317 25.5646 8.24204C25.3078 7.80086 24.8732 7.58027 24.2608 7.58027C23.5892 7.58027 23.1052 7.84097 22.8089 8.36236C22.5126 8.86371 22.3644 9.67588 22.3644 10.7989H18.2161C18.2161 9.21464 18.7989 7.96129 19.9644 7.03882C21.1298 6.11636 22.6706 5.65512 24.5867 5.65512C26.4041 5.65512 27.7869 6.06622 28.735 6.88842C29.6832 7.71062 30.1474 8.86371 30.1277 10.3477L30.0388 16.9955C30.0388 17.5971 30.1869 18.0282 30.4832 18.2889L32.1129 17.7174ZM23.4015 18.8304C24.1324 18.8304 24.725 18.5296 25.1794 17.9279C25.6337 17.3263 25.8707 16.4941 25.8905 15.4313L25.9201 13.5362C24.4583 13.7969 23.3916 14.1879 22.72 14.7093C22.0681 15.2107 21.7422 15.9025 21.7422 16.7849C21.7422 17.4266 21.8904 17.9279 22.1867 18.2889C22.5027 18.6499 22.9077 18.8304 23.4015 18.8304Z" fill="#1F2122"/>
<path d="M42.0584 6.10633H47.7771V7.58027L46.1474 7.88108L40.4584 23.1619C39.767 25.0069 38.9472 26.3003 37.999 27.0423C37.0508 27.7843 35.8063 28.0951 34.2656 27.9748V24.1245C34.7792 24.1646 35.1347 24.1847 35.3323 24.1847C36.4385 24.1847 37.2978 23.9641 37.9101 23.5229C38.5422 23.1018 39.0065 22.45 39.3028 21.5677L39.3917 21.327L33.1396 7.88108L31.5099 7.58027V6.10633H39.7176V7.58027L38.2657 7.76075C38.0879 7.90113 37.999 8.06156 37.999 8.24204C37.999 8.38242 38.0484 8.57293 38.1472 8.81357L41.2288 15.9727L43.6881 8.84365C43.7671 8.66317 43.8066 8.48269 43.8066 8.3022C43.8066 8.08161 43.7079 7.90113 43.5103 7.76075L42.0584 7.58027V6.10633Z" fill="#1F2122"/>
<path d="M48.9353 21.0563V19.1312L60.0468 1.92515H53.5577L50.6539 6.73802L49.439 6.49738C49.7946 4.13105 50.0316 1.96526 50.1501 0H64.9655V1.92515L53.8243 19.1312H61.232L64.0766 13.8972L65.4099 14.0476C65.1926 16.3738 65.0346 18.71 64.9358 21.0563H48.9353Z" fill="#1F2122"/>
<path d="M74.091 5.65512C76.1257 5.65512 77.7356 6.24671 78.9208 7.42987C80.106 8.61303 80.6987 10.1973 80.6987 12.1826C80.6987 12.5837 80.669 13.0148 80.6098 13.476H71.5724C71.6317 15.1806 71.9872 16.4741 72.6391 17.3564C73.3108 18.2388 74.2491 18.68 75.454 18.68C76.9751 18.68 78.2887 18.0182 79.3949 16.6946L80.5209 17.4767C79.79 18.8604 78.9208 19.8731 77.9134 20.5149C76.9059 21.1566 75.7108 21.4774 74.3281 21.4774C72.886 21.4774 71.6218 21.1666 70.5353 20.5449C69.4489 19.9032 68.6093 19.0008 68.0167 17.8377C67.4241 16.6545 67.1278 15.2708 67.1278 13.6866C67.1278 12.1024 67.4142 10.7086 67.9871 9.50542C68.56 8.28215 69.3699 7.33963 70.4168 6.67786C71.4835 5.99604 72.7083 5.65512 74.091 5.65512ZM76.2837 11.581C76.4022 8.91384 75.6614 7.58027 74.0614 7.58027C72.6194 7.58027 71.8095 8.91384 71.6317 11.581H76.2837Z" fill="#1F2122"/>
<path d="M99 19.5824V21.0563H91.5331V19.5824L92.659 19.3718C92.8763 19.1913 92.985 18.8905 92.985 18.4694V10.7086C92.985 9.9466 92.8171 9.37507 92.4812 8.99405C92.1652 8.59298 91.701 8.39244 91.0886 8.39244C90.3775 8.39244 89.4984 8.75341 88.4515 9.47534V18.4694C88.4515 18.6499 88.4811 18.8203 88.5404 18.9808C88.5996 19.1412 88.6786 19.2715 88.7774 19.3718L89.933 19.5824V21.0563H82.4365V19.5824L83.9772 19.3718C84.1748 19.1713 84.2736 18.8705 84.2736 18.4694V8.27212L82.1994 7.55019V6.10633C84.0168 6.10633 85.9823 6.02612 88.0959 5.86569V7.70059C89.1429 6.9185 90.0022 6.38708 90.6738 6.10633C91.3652 5.80553 92.0664 5.65512 92.7776 5.65512C94.1603 5.65512 95.2369 6.07625 96.0073 6.9185C96.7777 7.7407 97.1629 8.89379 97.1629 10.3778V18.4694C97.1629 18.6499 97.1925 18.8203 97.2518 18.9808C97.3111 19.1412 97.3901 19.2715 97.4888 19.3718L99 19.5824Z" fill="#1F2122"/>
</svg>
